%TF.GenerationSoftware,KiCad,Pcbnew,9.0.8*%
%TF.CreationDate,2026-03-20T16:44:04-04:00*%
%TF.ProjectId,starter_board,73746172-7465-4725-9f62-6f6172642e6b,rev?*%
%TF.SameCoordinates,Original*%
%TF.FileFunction,Drillmap*%
%TF.FilePolarity,Positive*%
%FSLAX45Y45*%
G04 Gerber Fmt 4.5, Leading zero omitted, Abs format (unit mm)*
G04 Created by KiCad (PCBNEW 9.0.8) date 2026-03-20 16:44:04*
%MOMM*%
%LPD*%
G01*
G04 APERTURE LIST*
%ADD10C,0.100000*%
%ADD11C,0.200000*%
%ADD12C,0.320000*%
G04 APERTURE END LIST*
D10*
X4800600Y-12529200D02*
X15000600Y-12529200D01*
X15000600Y-16529200D01*
X4800600Y-16529200D01*
X4800600Y-12529200D01*
D11*
D12*
X8000600Y-12639200D02*
X8320600Y-12959200D01*
X8320600Y-12639200D02*
X8000600Y-12959200D01*
X9440600Y-15509200D02*
X9760600Y-15829200D01*
X9760600Y-15509200D02*
X9440600Y-15829200D01*
X11210600Y-12849200D02*
X11530600Y-13169200D01*
X11530600Y-12849200D02*
X11210600Y-13169200D01*
X13070600Y-15939200D02*
X13390600Y-16259200D01*
X13390600Y-15939200D02*
X13070600Y-16259200D01*
X13240600Y-12769200D02*
X13560600Y-13089200D01*
X13560600Y-12769200D02*
X13240600Y-13089200D01*
D11*
X5056377Y-16845684D02*
X5056377Y-16645684D01*
X5056377Y-16645684D02*
X5103996Y-16645684D01*
X5103996Y-16645684D02*
X5132567Y-16655208D01*
X5132567Y-16655208D02*
X5151615Y-16674255D01*
X5151615Y-16674255D02*
X5161139Y-16693303D01*
X5161139Y-16693303D02*
X5170663Y-16731398D01*
X5170663Y-16731398D02*
X5170663Y-16759969D01*
X5170663Y-16759969D02*
X5161139Y-16798065D01*
X5161139Y-16798065D02*
X5151615Y-16817112D01*
X5151615Y-16817112D02*
X5132567Y-16836160D01*
X5132567Y-16836160D02*
X5103996Y-16845684D01*
X5103996Y-16845684D02*
X5056377Y-16845684D01*
X5256377Y-16845684D02*
X5256377Y-16712350D01*
X5256377Y-16750446D02*
X5265901Y-16731398D01*
X5265901Y-16731398D02*
X5275424Y-16721874D01*
X5275424Y-16721874D02*
X5294472Y-16712350D01*
X5294472Y-16712350D02*
X5313520Y-16712350D01*
X5380186Y-16845684D02*
X5380186Y-16712350D01*
X5380186Y-16645684D02*
X5370663Y-16655208D01*
X5370663Y-16655208D02*
X5380186Y-16664731D01*
X5380186Y-16664731D02*
X5389710Y-16655208D01*
X5389710Y-16655208D02*
X5380186Y-16645684D01*
X5380186Y-16645684D02*
X5380186Y-16664731D01*
X5503996Y-16845684D02*
X5484948Y-16836160D01*
X5484948Y-16836160D02*
X5475424Y-16817112D01*
X5475424Y-16817112D02*
X5475424Y-16645684D01*
X5608758Y-16845684D02*
X5589710Y-16836160D01*
X5589710Y-16836160D02*
X5580186Y-16817112D01*
X5580186Y-16817112D02*
X5580186Y-16645684D01*
X5837329Y-16845684D02*
X5837329Y-16645684D01*
X5837329Y-16645684D02*
X5903996Y-16788541D01*
X5903996Y-16788541D02*
X5970662Y-16645684D01*
X5970662Y-16645684D02*
X5970662Y-16845684D01*
X6151615Y-16845684D02*
X6151615Y-16740922D01*
X6151615Y-16740922D02*
X6142091Y-16721874D01*
X6142091Y-16721874D02*
X6123043Y-16712350D01*
X6123043Y-16712350D02*
X6084948Y-16712350D01*
X6084948Y-16712350D02*
X6065901Y-16721874D01*
X6151615Y-16836160D02*
X6132567Y-16845684D01*
X6132567Y-16845684D02*
X6084948Y-16845684D01*
X6084948Y-16845684D02*
X6065901Y-16836160D01*
X6065901Y-16836160D02*
X6056377Y-16817112D01*
X6056377Y-16817112D02*
X6056377Y-16798065D01*
X6056377Y-16798065D02*
X6065901Y-16779017D01*
X6065901Y-16779017D02*
X6084948Y-16769493D01*
X6084948Y-16769493D02*
X6132567Y-16769493D01*
X6132567Y-16769493D02*
X6151615Y-16759969D01*
X6246853Y-16712350D02*
X6246853Y-16912350D01*
X6246853Y-16721874D02*
X6265901Y-16712350D01*
X6265901Y-16712350D02*
X6303996Y-16712350D01*
X6303996Y-16712350D02*
X6323043Y-16721874D01*
X6323043Y-16721874D02*
X6332567Y-16731398D01*
X6332567Y-16731398D02*
X6342091Y-16750446D01*
X6342091Y-16750446D02*
X6342091Y-16807589D01*
X6342091Y-16807589D02*
X6332567Y-16826636D01*
X6332567Y-16826636D02*
X6323043Y-16836160D01*
X6323043Y-16836160D02*
X6303996Y-16845684D01*
X6303996Y-16845684D02*
X6265901Y-16845684D01*
X6265901Y-16845684D02*
X6246853Y-16836160D01*
X6427805Y-16826636D02*
X6437329Y-16836160D01*
X6437329Y-16836160D02*
X6427805Y-16845684D01*
X6427805Y-16845684D02*
X6418282Y-16836160D01*
X6418282Y-16836160D02*
X6427805Y-16826636D01*
X6427805Y-16826636D02*
X6427805Y-16845684D01*
X6427805Y-16721874D02*
X6437329Y-16731398D01*
X6437329Y-16731398D02*
X6427805Y-16740922D01*
X6427805Y-16740922D02*
X6418282Y-16731398D01*
X6418282Y-16731398D02*
X6427805Y-16721874D01*
X6427805Y-16721874D02*
X6427805Y-16740922D01*
X4595600Y-17074200D02*
X4795600Y-17274200D01*
X4795600Y-17074200D02*
X4595600Y-17274200D01*
X5037329Y-17065684D02*
X5161139Y-17065684D01*
X5161139Y-17065684D02*
X5094472Y-17141874D01*
X5094472Y-17141874D02*
X5123044Y-17141874D01*
X5123044Y-17141874D02*
X5142091Y-17151398D01*
X5142091Y-17151398D02*
X5151615Y-17160922D01*
X5151615Y-17160922D02*
X5161139Y-17179970D01*
X5161139Y-17179970D02*
X5161139Y-17227589D01*
X5161139Y-17227589D02*
X5151615Y-17246636D01*
X5151615Y-17246636D02*
X5142091Y-17256160D01*
X5142091Y-17256160D02*
X5123044Y-17265684D01*
X5123044Y-17265684D02*
X5065901Y-17265684D01*
X5065901Y-17265684D02*
X5046853Y-17256160D01*
X5046853Y-17256160D02*
X5037329Y-17246636D01*
X5246853Y-17246636D02*
X5256377Y-17256160D01*
X5256377Y-17256160D02*
X5246853Y-17265684D01*
X5246853Y-17265684D02*
X5237329Y-17256160D01*
X5237329Y-17256160D02*
X5246853Y-17246636D01*
X5246853Y-17246636D02*
X5246853Y-17265684D01*
X5332567Y-17084731D02*
X5342091Y-17075208D01*
X5342091Y-17075208D02*
X5361139Y-17065684D01*
X5361139Y-17065684D02*
X5408758Y-17065684D01*
X5408758Y-17065684D02*
X5427805Y-17075208D01*
X5427805Y-17075208D02*
X5437329Y-17084731D01*
X5437329Y-17084731D02*
X5446853Y-17103779D01*
X5446853Y-17103779D02*
X5446853Y-17122827D01*
X5446853Y-17122827D02*
X5437329Y-17151398D01*
X5437329Y-17151398D02*
X5323044Y-17265684D01*
X5323044Y-17265684D02*
X5446853Y-17265684D01*
X5570663Y-17065684D02*
X5589710Y-17065684D01*
X5589710Y-17065684D02*
X5608758Y-17075208D01*
X5608758Y-17075208D02*
X5618282Y-17084731D01*
X5618282Y-17084731D02*
X5627805Y-17103779D01*
X5627805Y-17103779D02*
X5637329Y-17141874D01*
X5637329Y-17141874D02*
X5637329Y-17189493D01*
X5637329Y-17189493D02*
X5627805Y-17227589D01*
X5627805Y-17227589D02*
X5618282Y-17246636D01*
X5618282Y-17246636D02*
X5608758Y-17256160D01*
X5608758Y-17256160D02*
X5589710Y-17265684D01*
X5589710Y-17265684D02*
X5570663Y-17265684D01*
X5570663Y-17265684D02*
X5551615Y-17256160D01*
X5551615Y-17256160D02*
X5542091Y-17246636D01*
X5542091Y-17246636D02*
X5532567Y-17227589D01*
X5532567Y-17227589D02*
X5523044Y-17189493D01*
X5523044Y-17189493D02*
X5523044Y-17141874D01*
X5523044Y-17141874D02*
X5532567Y-17103779D01*
X5532567Y-17103779D02*
X5542091Y-17084731D01*
X5542091Y-17084731D02*
X5551615Y-17075208D01*
X5551615Y-17075208D02*
X5570663Y-17065684D01*
X5761139Y-17065684D02*
X5780186Y-17065684D01*
X5780186Y-17065684D02*
X5799234Y-17075208D01*
X5799234Y-17075208D02*
X5808758Y-17084731D01*
X5808758Y-17084731D02*
X5818282Y-17103779D01*
X5818282Y-17103779D02*
X5827805Y-17141874D01*
X5827805Y-17141874D02*
X5827805Y-17189493D01*
X5827805Y-17189493D02*
X5818282Y-17227589D01*
X5818282Y-17227589D02*
X5808758Y-17246636D01*
X5808758Y-17246636D02*
X5799234Y-17256160D01*
X5799234Y-17256160D02*
X5780186Y-17265684D01*
X5780186Y-17265684D02*
X5761139Y-17265684D01*
X5761139Y-17265684D02*
X5742091Y-17256160D01*
X5742091Y-17256160D02*
X5732567Y-17246636D01*
X5732567Y-17246636D02*
X5723043Y-17227589D01*
X5723043Y-17227589D02*
X5713520Y-17189493D01*
X5713520Y-17189493D02*
X5713520Y-17141874D01*
X5713520Y-17141874D02*
X5723043Y-17103779D01*
X5723043Y-17103779D02*
X5732567Y-17084731D01*
X5732567Y-17084731D02*
X5742091Y-17075208D01*
X5742091Y-17075208D02*
X5761139Y-17065684D01*
X5913520Y-17265684D02*
X5913520Y-17132350D01*
X5913520Y-17151398D02*
X5923043Y-17141874D01*
X5923043Y-17141874D02*
X5942091Y-17132350D01*
X5942091Y-17132350D02*
X5970663Y-17132350D01*
X5970663Y-17132350D02*
X5989710Y-17141874D01*
X5989710Y-17141874D02*
X5999234Y-17160922D01*
X5999234Y-17160922D02*
X5999234Y-17265684D01*
X5999234Y-17160922D02*
X6008758Y-17141874D01*
X6008758Y-17141874D02*
X6027805Y-17132350D01*
X6027805Y-17132350D02*
X6056377Y-17132350D01*
X6056377Y-17132350D02*
X6075424Y-17141874D01*
X6075424Y-17141874D02*
X6084948Y-17160922D01*
X6084948Y-17160922D02*
X6084948Y-17265684D01*
X6180186Y-17265684D02*
X6180186Y-17132350D01*
X6180186Y-17151398D02*
X6189710Y-17141874D01*
X6189710Y-17141874D02*
X6208758Y-17132350D01*
X6208758Y-17132350D02*
X6237329Y-17132350D01*
X6237329Y-17132350D02*
X6256377Y-17141874D01*
X6256377Y-17141874D02*
X6265901Y-17160922D01*
X6265901Y-17160922D02*
X6265901Y-17265684D01*
X6265901Y-17160922D02*
X6275424Y-17141874D01*
X6275424Y-17141874D02*
X6294472Y-17132350D01*
X6294472Y-17132350D02*
X6323043Y-17132350D01*
X6323043Y-17132350D02*
X6342091Y-17141874D01*
X6342091Y-17141874D02*
X6351615Y-17160922D01*
X6351615Y-17160922D02*
X6351615Y-17265684D01*
X6742091Y-17056160D02*
X6570663Y-17313303D01*
X6999234Y-17065684D02*
X7018282Y-17065684D01*
X7018282Y-17065684D02*
X7037329Y-17075208D01*
X7037329Y-17075208D02*
X7046853Y-17084731D01*
X7046853Y-17084731D02*
X7056377Y-17103779D01*
X7056377Y-17103779D02*
X7065901Y-17141874D01*
X7065901Y-17141874D02*
X7065901Y-17189493D01*
X7065901Y-17189493D02*
X7056377Y-17227589D01*
X7056377Y-17227589D02*
X7046853Y-17246636D01*
X7046853Y-17246636D02*
X7037329Y-17256160D01*
X7037329Y-17256160D02*
X7018282Y-17265684D01*
X7018282Y-17265684D02*
X6999234Y-17265684D01*
X6999234Y-17265684D02*
X6980186Y-17256160D01*
X6980186Y-17256160D02*
X6970663Y-17246636D01*
X6970663Y-17246636D02*
X6961139Y-17227589D01*
X6961139Y-17227589D02*
X6951615Y-17189493D01*
X6951615Y-17189493D02*
X6951615Y-17141874D01*
X6951615Y-17141874D02*
X6961139Y-17103779D01*
X6961139Y-17103779D02*
X6970663Y-17084731D01*
X6970663Y-17084731D02*
X6980186Y-17075208D01*
X6980186Y-17075208D02*
X6999234Y-17065684D01*
X7151615Y-17246636D02*
X7161139Y-17256160D01*
X7161139Y-17256160D02*
X7151615Y-17265684D01*
X7151615Y-17265684D02*
X7142091Y-17256160D01*
X7142091Y-17256160D02*
X7151615Y-17246636D01*
X7151615Y-17246636D02*
X7151615Y-17265684D01*
X7351615Y-17265684D02*
X7237329Y-17265684D01*
X7294472Y-17265684D02*
X7294472Y-17065684D01*
X7294472Y-17065684D02*
X7275425Y-17094255D01*
X7275425Y-17094255D02*
X7256377Y-17113303D01*
X7256377Y-17113303D02*
X7237329Y-17122827D01*
X7427806Y-17084731D02*
X7437329Y-17075208D01*
X7437329Y-17075208D02*
X7456377Y-17065684D01*
X7456377Y-17065684D02*
X7503996Y-17065684D01*
X7503996Y-17065684D02*
X7523044Y-17075208D01*
X7523044Y-17075208D02*
X7532567Y-17084731D01*
X7532567Y-17084731D02*
X7542091Y-17103779D01*
X7542091Y-17103779D02*
X7542091Y-17122827D01*
X7542091Y-17122827D02*
X7532567Y-17151398D01*
X7532567Y-17151398D02*
X7418282Y-17265684D01*
X7418282Y-17265684D02*
X7542091Y-17265684D01*
X7713520Y-17065684D02*
X7675425Y-17065684D01*
X7675425Y-17065684D02*
X7656377Y-17075208D01*
X7656377Y-17075208D02*
X7646853Y-17084731D01*
X7646853Y-17084731D02*
X7627806Y-17113303D01*
X7627806Y-17113303D02*
X7618282Y-17151398D01*
X7618282Y-17151398D02*
X7618282Y-17227589D01*
X7618282Y-17227589D02*
X7627806Y-17246636D01*
X7627806Y-17246636D02*
X7637329Y-17256160D01*
X7637329Y-17256160D02*
X7656377Y-17265684D01*
X7656377Y-17265684D02*
X7694472Y-17265684D01*
X7694472Y-17265684D02*
X7713520Y-17256160D01*
X7713520Y-17256160D02*
X7723044Y-17246636D01*
X7723044Y-17246636D02*
X7732567Y-17227589D01*
X7732567Y-17227589D02*
X7732567Y-17179970D01*
X7732567Y-17179970D02*
X7723044Y-17160922D01*
X7723044Y-17160922D02*
X7713520Y-17151398D01*
X7713520Y-17151398D02*
X7694472Y-17141874D01*
X7694472Y-17141874D02*
X7656377Y-17141874D01*
X7656377Y-17141874D02*
X7637329Y-17151398D01*
X7637329Y-17151398D02*
X7627806Y-17160922D01*
X7627806Y-17160922D02*
X7618282Y-17179970D01*
X7856377Y-17065684D02*
X7875425Y-17065684D01*
X7875425Y-17065684D02*
X7894472Y-17075208D01*
X7894472Y-17075208D02*
X7903996Y-17084731D01*
X7903996Y-17084731D02*
X7913520Y-17103779D01*
X7913520Y-17103779D02*
X7923044Y-17141874D01*
X7923044Y-17141874D02*
X7923044Y-17189493D01*
X7923044Y-17189493D02*
X7913520Y-17227589D01*
X7913520Y-17227589D02*
X7903996Y-17246636D01*
X7903996Y-17246636D02*
X7894472Y-17256160D01*
X7894472Y-17256160D02*
X7875425Y-17265684D01*
X7875425Y-17265684D02*
X7856377Y-17265684D01*
X7856377Y-17265684D02*
X7837329Y-17256160D01*
X7837329Y-17256160D02*
X7827806Y-17246636D01*
X7827806Y-17246636D02*
X7818282Y-17227589D01*
X7818282Y-17227589D02*
X7808758Y-17189493D01*
X7808758Y-17189493D02*
X7808758Y-17141874D01*
X7808758Y-17141874D02*
X7818282Y-17103779D01*
X7818282Y-17103779D02*
X7827806Y-17084731D01*
X7827806Y-17084731D02*
X7837329Y-17075208D01*
X7837329Y-17075208D02*
X7856377Y-17065684D01*
X7999234Y-17065684D02*
X7999234Y-17103779D01*
X8075425Y-17065684D02*
X8075425Y-17103779D01*
X8370663Y-17341874D02*
X8361139Y-17332350D01*
X8361139Y-17332350D02*
X8342091Y-17303779D01*
X8342091Y-17303779D02*
X8332568Y-17284731D01*
X8332568Y-17284731D02*
X8323044Y-17256160D01*
X8323044Y-17256160D02*
X8313520Y-17208541D01*
X8313520Y-17208541D02*
X8313520Y-17170446D01*
X8313520Y-17170446D02*
X8323044Y-17122827D01*
X8323044Y-17122827D02*
X8332568Y-17094255D01*
X8332568Y-17094255D02*
X8342091Y-17075208D01*
X8342091Y-17075208D02*
X8361139Y-17046636D01*
X8361139Y-17046636D02*
X8370663Y-17037112D01*
X8542091Y-17065684D02*
X8446853Y-17065684D01*
X8446853Y-17065684D02*
X8437330Y-17160922D01*
X8437330Y-17160922D02*
X8446853Y-17151398D01*
X8446853Y-17151398D02*
X8465901Y-17141874D01*
X8465901Y-17141874D02*
X8513520Y-17141874D01*
X8513520Y-17141874D02*
X8532568Y-17151398D01*
X8532568Y-17151398D02*
X8542091Y-17160922D01*
X8542091Y-17160922D02*
X8551615Y-17179970D01*
X8551615Y-17179970D02*
X8551615Y-17227589D01*
X8551615Y-17227589D02*
X8542091Y-17246636D01*
X8542091Y-17246636D02*
X8532568Y-17256160D01*
X8532568Y-17256160D02*
X8513520Y-17265684D01*
X8513520Y-17265684D02*
X8465901Y-17265684D01*
X8465901Y-17265684D02*
X8446853Y-17256160D01*
X8446853Y-17256160D02*
X8437330Y-17246636D01*
X8789711Y-17265684D02*
X8789711Y-17065684D01*
X8875425Y-17265684D02*
X8875425Y-17160922D01*
X8875425Y-17160922D02*
X8865901Y-17141874D01*
X8865901Y-17141874D02*
X8846853Y-17132350D01*
X8846853Y-17132350D02*
X8818282Y-17132350D01*
X8818282Y-17132350D02*
X8799234Y-17141874D01*
X8799234Y-17141874D02*
X8789711Y-17151398D01*
X8999234Y-17265684D02*
X8980187Y-17256160D01*
X8980187Y-17256160D02*
X8970663Y-17246636D01*
X8970663Y-17246636D02*
X8961139Y-17227589D01*
X8961139Y-17227589D02*
X8961139Y-17170446D01*
X8961139Y-17170446D02*
X8970663Y-17151398D01*
X8970663Y-17151398D02*
X8980187Y-17141874D01*
X8980187Y-17141874D02*
X8999234Y-17132350D01*
X8999234Y-17132350D02*
X9027806Y-17132350D01*
X9027806Y-17132350D02*
X9046853Y-17141874D01*
X9046853Y-17141874D02*
X9056377Y-17151398D01*
X9056377Y-17151398D02*
X9065901Y-17170446D01*
X9065901Y-17170446D02*
X9065901Y-17227589D01*
X9065901Y-17227589D02*
X9056377Y-17246636D01*
X9056377Y-17246636D02*
X9046853Y-17256160D01*
X9046853Y-17256160D02*
X9027806Y-17265684D01*
X9027806Y-17265684D02*
X8999234Y-17265684D01*
X9180187Y-17265684D02*
X9161139Y-17256160D01*
X9161139Y-17256160D02*
X9151615Y-17237112D01*
X9151615Y-17237112D02*
X9151615Y-17065684D01*
X9332568Y-17256160D02*
X9313520Y-17265684D01*
X9313520Y-17265684D02*
X9275425Y-17265684D01*
X9275425Y-17265684D02*
X9256377Y-17256160D01*
X9256377Y-17256160D02*
X9246853Y-17237112D01*
X9246853Y-17237112D02*
X9246853Y-17160922D01*
X9246853Y-17160922D02*
X9256377Y-17141874D01*
X9256377Y-17141874D02*
X9275425Y-17132350D01*
X9275425Y-17132350D02*
X9313520Y-17132350D01*
X9313520Y-17132350D02*
X9332568Y-17141874D01*
X9332568Y-17141874D02*
X9342092Y-17160922D01*
X9342092Y-17160922D02*
X9342092Y-17179970D01*
X9342092Y-17179970D02*
X9246853Y-17199017D01*
X9418282Y-17256160D02*
X9437330Y-17265684D01*
X9437330Y-17265684D02*
X9475425Y-17265684D01*
X9475425Y-17265684D02*
X9494473Y-17256160D01*
X9494473Y-17256160D02*
X9503996Y-17237112D01*
X9503996Y-17237112D02*
X9503996Y-17227589D01*
X9503996Y-17227589D02*
X9494473Y-17208541D01*
X9494473Y-17208541D02*
X9475425Y-17199017D01*
X9475425Y-17199017D02*
X9446853Y-17199017D01*
X9446853Y-17199017D02*
X9427806Y-17189493D01*
X9427806Y-17189493D02*
X9418282Y-17170446D01*
X9418282Y-17170446D02*
X9418282Y-17160922D01*
X9418282Y-17160922D02*
X9427806Y-17141874D01*
X9427806Y-17141874D02*
X9446853Y-17132350D01*
X9446853Y-17132350D02*
X9475425Y-17132350D01*
X9475425Y-17132350D02*
X9494473Y-17141874D01*
X9570663Y-17341874D02*
X9580187Y-17332350D01*
X9580187Y-17332350D02*
X9599234Y-17303779D01*
X9599234Y-17303779D02*
X9608758Y-17284731D01*
X9608758Y-17284731D02*
X9618282Y-17256160D01*
X9618282Y-17256160D02*
X9627806Y-17208541D01*
X9627806Y-17208541D02*
X9627806Y-17170446D01*
X9627806Y-17170446D02*
X9618282Y-17122827D01*
X9618282Y-17122827D02*
X9608758Y-17094255D01*
X9608758Y-17094255D02*
X9599234Y-17075208D01*
X9599234Y-17075208D02*
X9580187Y-17046636D01*
X9580187Y-17046636D02*
X9570663Y-17037112D01*
X9932568Y-17341874D02*
X9923044Y-17332350D01*
X9923044Y-17332350D02*
X9903996Y-17303779D01*
X9903996Y-17303779D02*
X9894473Y-17284731D01*
X9894473Y-17284731D02*
X9884949Y-17256160D01*
X9884949Y-17256160D02*
X9875425Y-17208541D01*
X9875425Y-17208541D02*
X9875425Y-17170446D01*
X9875425Y-17170446D02*
X9884949Y-17122827D01*
X9884949Y-17122827D02*
X9894473Y-17094255D01*
X9894473Y-17094255D02*
X9903996Y-17075208D01*
X9903996Y-17075208D02*
X9923044Y-17046636D01*
X9923044Y-17046636D02*
X9932568Y-17037112D01*
X10008758Y-17132350D02*
X10008758Y-17265684D01*
X10008758Y-17151398D02*
X10018282Y-17141874D01*
X10018282Y-17141874D02*
X10037330Y-17132350D01*
X10037330Y-17132350D02*
X10065901Y-17132350D01*
X10065901Y-17132350D02*
X10084949Y-17141874D01*
X10084949Y-17141874D02*
X10094473Y-17160922D01*
X10094473Y-17160922D02*
X10094473Y-17265684D01*
X10218282Y-17265684D02*
X10199234Y-17256160D01*
X10199234Y-17256160D02*
X10189711Y-17246636D01*
X10189711Y-17246636D02*
X10180187Y-17227589D01*
X10180187Y-17227589D02*
X10180187Y-17170446D01*
X10180187Y-17170446D02*
X10189711Y-17151398D01*
X10189711Y-17151398D02*
X10199234Y-17141874D01*
X10199234Y-17141874D02*
X10218282Y-17132350D01*
X10218282Y-17132350D02*
X10246854Y-17132350D01*
X10246854Y-17132350D02*
X10265901Y-17141874D01*
X10265901Y-17141874D02*
X10275425Y-17151398D01*
X10275425Y-17151398D02*
X10284949Y-17170446D01*
X10284949Y-17170446D02*
X10284949Y-17227589D01*
X10284949Y-17227589D02*
X10275425Y-17246636D01*
X10275425Y-17246636D02*
X10265901Y-17256160D01*
X10265901Y-17256160D02*
X10246854Y-17265684D01*
X10246854Y-17265684D02*
X10218282Y-17265684D01*
X10342092Y-17132350D02*
X10418282Y-17132350D01*
X10370663Y-17065684D02*
X10370663Y-17237112D01*
X10370663Y-17237112D02*
X10380187Y-17256160D01*
X10380187Y-17256160D02*
X10399234Y-17265684D01*
X10399234Y-17265684D02*
X10418282Y-17265684D01*
X10637330Y-17132350D02*
X10637330Y-17332350D01*
X10637330Y-17141874D02*
X10656377Y-17132350D01*
X10656377Y-17132350D02*
X10694473Y-17132350D01*
X10694473Y-17132350D02*
X10713520Y-17141874D01*
X10713520Y-17141874D02*
X10723044Y-17151398D01*
X10723044Y-17151398D02*
X10732568Y-17170446D01*
X10732568Y-17170446D02*
X10732568Y-17227589D01*
X10732568Y-17227589D02*
X10723044Y-17246636D01*
X10723044Y-17246636D02*
X10713520Y-17256160D01*
X10713520Y-17256160D02*
X10694473Y-17265684D01*
X10694473Y-17265684D02*
X10656377Y-17265684D01*
X10656377Y-17265684D02*
X10637330Y-17256160D01*
X10846854Y-17265684D02*
X10827806Y-17256160D01*
X10827806Y-17256160D02*
X10818282Y-17237112D01*
X10818282Y-17237112D02*
X10818282Y-17065684D01*
X11008758Y-17265684D02*
X11008758Y-17160922D01*
X11008758Y-17160922D02*
X10999235Y-17141874D01*
X10999235Y-17141874D02*
X10980187Y-17132350D01*
X10980187Y-17132350D02*
X10942092Y-17132350D01*
X10942092Y-17132350D02*
X10923044Y-17141874D01*
X11008758Y-17256160D02*
X10989711Y-17265684D01*
X10989711Y-17265684D02*
X10942092Y-17265684D01*
X10942092Y-17265684D02*
X10923044Y-17256160D01*
X10923044Y-17256160D02*
X10913520Y-17237112D01*
X10913520Y-17237112D02*
X10913520Y-17218065D01*
X10913520Y-17218065D02*
X10923044Y-17199017D01*
X10923044Y-17199017D02*
X10942092Y-17189493D01*
X10942092Y-17189493D02*
X10989711Y-17189493D01*
X10989711Y-17189493D02*
X11008758Y-17179970D01*
X11075425Y-17132350D02*
X11151615Y-17132350D01*
X11103996Y-17065684D02*
X11103996Y-17237112D01*
X11103996Y-17237112D02*
X11113520Y-17256160D01*
X11113520Y-17256160D02*
X11132568Y-17265684D01*
X11132568Y-17265684D02*
X11151615Y-17265684D01*
X11294473Y-17256160D02*
X11275425Y-17265684D01*
X11275425Y-17265684D02*
X11237330Y-17265684D01*
X11237330Y-17265684D02*
X11218282Y-17256160D01*
X11218282Y-17256160D02*
X11208758Y-17237112D01*
X11208758Y-17237112D02*
X11208758Y-17160922D01*
X11208758Y-17160922D02*
X11218282Y-17141874D01*
X11218282Y-17141874D02*
X11237330Y-17132350D01*
X11237330Y-17132350D02*
X11275425Y-17132350D01*
X11275425Y-17132350D02*
X11294473Y-17141874D01*
X11294473Y-17141874D02*
X11303996Y-17160922D01*
X11303996Y-17160922D02*
X11303996Y-17179970D01*
X11303996Y-17179970D02*
X11208758Y-17199017D01*
X11475425Y-17265684D02*
X11475425Y-17065684D01*
X11475425Y-17256160D02*
X11456377Y-17265684D01*
X11456377Y-17265684D02*
X11418282Y-17265684D01*
X11418282Y-17265684D02*
X11399234Y-17256160D01*
X11399234Y-17256160D02*
X11389711Y-17246636D01*
X11389711Y-17246636D02*
X11380187Y-17227589D01*
X11380187Y-17227589D02*
X11380187Y-17170446D01*
X11380187Y-17170446D02*
X11389711Y-17151398D01*
X11389711Y-17151398D02*
X11399234Y-17141874D01*
X11399234Y-17141874D02*
X11418282Y-17132350D01*
X11418282Y-17132350D02*
X11456377Y-17132350D01*
X11456377Y-17132350D02*
X11475425Y-17141874D01*
X11551615Y-17341874D02*
X11561139Y-17332350D01*
X11561139Y-17332350D02*
X11580187Y-17303779D01*
X11580187Y-17303779D02*
X11589711Y-17284731D01*
X11589711Y-17284731D02*
X11599234Y-17256160D01*
X11599234Y-17256160D02*
X11608758Y-17208541D01*
X11608758Y-17208541D02*
X11608758Y-17170446D01*
X11608758Y-17170446D02*
X11599234Y-17122827D01*
X11599234Y-17122827D02*
X11589711Y-17094255D01*
X11589711Y-17094255D02*
X11580187Y-17075208D01*
X11580187Y-17075208D02*
X11561139Y-17046636D01*
X11561139Y-17046636D02*
X11551615Y-17037112D01*
M02*
