G04 #@! TF.GenerationSoftware,KiCad,Pcbnew,9.0.8*
G04 #@! TF.CreationDate,2026-03-20T16:29:29-04:00*
G04 #@! TF.ProjectId,starter_board,73746172-7465-4725-9f62-6f6172642e6b,rev?*
G04 #@! TF.SameCoordinates,Original*
G04 #@! TF.FileFunction,Legend,Bot*
G04 #@! TF.FilePolarity,Positive*
%FSLAX46Y46*%
G04 Gerber Fmt 4.6, Leading zero omitted, Abs format (unit mm)*
G04 Created by KiCad (PCBNEW 9.0.8) date 2026-03-20 16:29:29*
%MOMM*%
%LPD*%
G01*
G04 APERTURE LIST*
G04 Aperture macros list*
%AMRoundRect*
0 Rectangle with rounded corners*
0 $1 Rounding radius*
0 $2 $3 $4 $5 $6 $7 $8 $9 X,Y pos of 4 corners*
0 Add a 4 corners polygon primitive as box body*
4,1,4,$2,$3,$4,$5,$6,$7,$8,$9,$2,$3,0*
0 Add four circle primitives for the rounded corners*
1,1,$1+$1,$2,$3*
1,1,$1+$1,$4,$5*
1,1,$1+$1,$6,$7*
1,1,$1+$1,$8,$9*
0 Add four rect primitives between the rounded corners*
20,1,$1+$1,$2,$3,$4,$5,0*
20,1,$1+$1,$4,$5,$6,$7,0*
20,1,$1+$1,$6,$7,$8,$9,0*
20,1,$1+$1,$8,$9,$2,$3,0*%
G04 Aperture macros list end*
%ADD10C,0.150000*%
%ADD11C,0.120000*%
%ADD12C,3.200000*%
%ADD13R,1.700000X1.700000*%
%ADD14O,1.700000X1.700000*%
%ADD15O,1.900000X1.050000*%
%ADD16RoundRect,0.250000X0.525000X0.250000X-0.525000X0.250000X-0.525000X-0.250000X0.525000X-0.250000X0*%
G04 APERTURE END LIST*
D10*
X79175819Y-131128779D02*
X78175819Y-131128779D01*
X78175819Y-131128779D02*
X79175819Y-131700207D01*
X79175819Y-131700207D02*
X78175819Y-131700207D01*
X79175819Y-132176398D02*
X78175819Y-132176398D01*
X79080580Y-133224016D02*
X79128200Y-133176397D01*
X79128200Y-133176397D02*
X79175819Y-133033540D01*
X79175819Y-133033540D02*
X79175819Y-132938302D01*
X79175819Y-132938302D02*
X79128200Y-132795445D01*
X79128200Y-132795445D02*
X79032961Y-132700207D01*
X79032961Y-132700207D02*
X78937723Y-132652588D01*
X78937723Y-132652588D02*
X78747247Y-132604969D01*
X78747247Y-132604969D02*
X78604390Y-132604969D01*
X78604390Y-132604969D02*
X78413914Y-132652588D01*
X78413914Y-132652588D02*
X78318676Y-132700207D01*
X78318676Y-132700207D02*
X78223438Y-132795445D01*
X78223438Y-132795445D02*
X78175819Y-132938302D01*
X78175819Y-132938302D02*
X78175819Y-133033540D01*
X78175819Y-133033540D02*
X78223438Y-133176397D01*
X78223438Y-133176397D02*
X78271057Y-133224016D01*
X78175819Y-133843064D02*
X78175819Y-134033540D01*
X78175819Y-134033540D02*
X78223438Y-134128778D01*
X78223438Y-134128778D02*
X78318676Y-134224016D01*
X78318676Y-134224016D02*
X78509152Y-134271635D01*
X78509152Y-134271635D02*
X78842485Y-134271635D01*
X78842485Y-134271635D02*
X79032961Y-134224016D01*
X79032961Y-134224016D02*
X79128200Y-134128778D01*
X79128200Y-134128778D02*
X79175819Y-134033540D01*
X79175819Y-134033540D02*
X79175819Y-133843064D01*
X79175819Y-133843064D02*
X79128200Y-133747826D01*
X79128200Y-133747826D02*
X79032961Y-133652588D01*
X79032961Y-133652588D02*
X78842485Y-133604969D01*
X78842485Y-133604969D02*
X78509152Y-133604969D01*
X78509152Y-133604969D02*
X78318676Y-133652588D01*
X78318676Y-133652588D02*
X78223438Y-133747826D01*
X78223438Y-133747826D02*
X78175819Y-133843064D01*
X79175819Y-135176397D02*
X79175819Y-134700207D01*
X79175819Y-134700207D02*
X78175819Y-134700207D01*
X78890104Y-135462112D02*
X78890104Y-135938302D01*
X79175819Y-135366874D02*
X78175819Y-135700207D01*
X78175819Y-135700207D02*
X79175819Y-136033540D01*
X79128200Y-136319255D02*
X79175819Y-136462112D01*
X79175819Y-136462112D02*
X79175819Y-136700207D01*
X79175819Y-136700207D02*
X79128200Y-136795445D01*
X79128200Y-136795445D02*
X79080580Y-136843064D01*
X79080580Y-136843064D02*
X78985342Y-136890683D01*
X78985342Y-136890683D02*
X78890104Y-136890683D01*
X78890104Y-136890683D02*
X78794866Y-136843064D01*
X78794866Y-136843064D02*
X78747247Y-136795445D01*
X78747247Y-136795445D02*
X78699628Y-136700207D01*
X78699628Y-136700207D02*
X78652009Y-136509731D01*
X78652009Y-136509731D02*
X78604390Y-136414493D01*
X78604390Y-136414493D02*
X78556771Y-136366874D01*
X78556771Y-136366874D02*
X78461533Y-136319255D01*
X78461533Y-136319255D02*
X78366295Y-136319255D01*
X78366295Y-136319255D02*
X78271057Y-136366874D01*
X78271057Y-136366874D02*
X78223438Y-136414493D01*
X78223438Y-136414493D02*
X78175819Y-136509731D01*
X78175819Y-136509731D02*
X78175819Y-136747826D01*
X78175819Y-136747826D02*
X78223438Y-136890683D01*
X78223438Y-137843064D02*
X78175819Y-137747826D01*
X78175819Y-137747826D02*
X78175819Y-137604969D01*
X78175819Y-137604969D02*
X78223438Y-137462112D01*
X78223438Y-137462112D02*
X78318676Y-137366874D01*
X78318676Y-137366874D02*
X78413914Y-137319255D01*
X78413914Y-137319255D02*
X78604390Y-137271636D01*
X78604390Y-137271636D02*
X78747247Y-137271636D01*
X78747247Y-137271636D02*
X78937723Y-137319255D01*
X78937723Y-137319255D02*
X79032961Y-137366874D01*
X79032961Y-137366874D02*
X79128200Y-137462112D01*
X79128200Y-137462112D02*
X79175819Y-137604969D01*
X79175819Y-137604969D02*
X79175819Y-137700207D01*
X79175819Y-137700207D02*
X79128200Y-137843064D01*
X79128200Y-137843064D02*
X79080580Y-137890683D01*
X79080580Y-137890683D02*
X78747247Y-137890683D01*
X78747247Y-137890683D02*
X78747247Y-137700207D01*
X79175819Y-138890683D02*
X78699628Y-138557350D01*
X79175819Y-138319255D02*
X78175819Y-138319255D01*
X78175819Y-138319255D02*
X78175819Y-138700207D01*
X78175819Y-138700207D02*
X78223438Y-138795445D01*
X78223438Y-138795445D02*
X78271057Y-138843064D01*
X78271057Y-138843064D02*
X78366295Y-138890683D01*
X78366295Y-138890683D02*
X78509152Y-138890683D01*
X78509152Y-138890683D02*
X78604390Y-138843064D01*
X78604390Y-138843064D02*
X78652009Y-138795445D01*
X78652009Y-138795445D02*
X78699628Y-138700207D01*
X78699628Y-138700207D02*
X78699628Y-138319255D01*
X78890104Y-139271636D02*
X78890104Y-139747826D01*
X79175819Y-139176398D02*
X78175819Y-139509731D01*
X78175819Y-139509731D02*
X79175819Y-139843064D01*
X79175819Y-140176398D02*
X78175819Y-140176398D01*
X78652009Y-140176398D02*
X78652009Y-140747826D01*
X79175819Y-140747826D02*
X78175819Y-140747826D01*
X78890104Y-141176398D02*
X78890104Y-141652588D01*
X79175819Y-141081160D02*
X78175819Y-141414493D01*
X78175819Y-141414493D02*
X79175819Y-141747826D01*
X79175819Y-142081160D02*
X78175819Y-142081160D01*
X78175819Y-142081160D02*
X78890104Y-142414493D01*
X78890104Y-142414493D02*
X78175819Y-142747826D01*
X78175819Y-142747826D02*
X79175819Y-142747826D01*
X79080580Y-143224017D02*
X79128200Y-143271636D01*
X79128200Y-143271636D02*
X79175819Y-143224017D01*
X79175819Y-143224017D02*
X79128200Y-143176398D01*
X79128200Y-143176398D02*
X79080580Y-143224017D01*
X79080580Y-143224017D02*
X79175819Y-143224017D01*
X79080580Y-144271635D02*
X79128200Y-144224016D01*
X79128200Y-144224016D02*
X79175819Y-144081159D01*
X79175819Y-144081159D02*
X79175819Y-143985921D01*
X79175819Y-143985921D02*
X79128200Y-143843064D01*
X79128200Y-143843064D02*
X79032961Y-143747826D01*
X79032961Y-143747826D02*
X78937723Y-143700207D01*
X78937723Y-143700207D02*
X78747247Y-143652588D01*
X78747247Y-143652588D02*
X78604390Y-143652588D01*
X78604390Y-143652588D02*
X78413914Y-143700207D01*
X78413914Y-143700207D02*
X78318676Y-143747826D01*
X78318676Y-143747826D02*
X78223438Y-143843064D01*
X78223438Y-143843064D02*
X78175819Y-143985921D01*
X78175819Y-143985921D02*
X78175819Y-144081159D01*
X78175819Y-144081159D02*
X78223438Y-144224016D01*
X78223438Y-144224016D02*
X78271057Y-144271635D01*
X78175819Y-144890683D02*
X78175819Y-145081159D01*
X78175819Y-145081159D02*
X78223438Y-145176397D01*
X78223438Y-145176397D02*
X78318676Y-145271635D01*
X78318676Y-145271635D02*
X78509152Y-145319254D01*
X78509152Y-145319254D02*
X78842485Y-145319254D01*
X78842485Y-145319254D02*
X79032961Y-145271635D01*
X79032961Y-145271635D02*
X79128200Y-145176397D01*
X79128200Y-145176397D02*
X79175819Y-145081159D01*
X79175819Y-145081159D02*
X79175819Y-144890683D01*
X79175819Y-144890683D02*
X79128200Y-144795445D01*
X79128200Y-144795445D02*
X79032961Y-144700207D01*
X79032961Y-144700207D02*
X78842485Y-144652588D01*
X78842485Y-144652588D02*
X78509152Y-144652588D01*
X78509152Y-144652588D02*
X78318676Y-144700207D01*
X78318676Y-144700207D02*
X78223438Y-144795445D01*
X78223438Y-144795445D02*
X78175819Y-144890683D01*
X79175819Y-145747826D02*
X78175819Y-145747826D01*
X78175819Y-145747826D02*
X78890104Y-146081159D01*
X78890104Y-146081159D02*
X78175819Y-146414492D01*
X78175819Y-146414492D02*
X79175819Y-146414492D01*
X90369220Y-159561819D02*
X90369220Y-158561819D01*
X90369220Y-158561819D02*
X90131125Y-158561819D01*
X90131125Y-158561819D02*
X89988268Y-158609438D01*
X89988268Y-158609438D02*
X89893030Y-158704676D01*
X89893030Y-158704676D02*
X89845411Y-158799914D01*
X89845411Y-158799914D02*
X89797792Y-158990390D01*
X89797792Y-158990390D02*
X89797792Y-159133247D01*
X89797792Y-159133247D02*
X89845411Y-159323723D01*
X89845411Y-159323723D02*
X89893030Y-159418961D01*
X89893030Y-159418961D02*
X89988268Y-159514200D01*
X89988268Y-159514200D02*
X90131125Y-159561819D01*
X90131125Y-159561819D02*
X90369220Y-159561819D01*
X88845411Y-159561819D02*
X89416839Y-159561819D01*
X89131125Y-159561819D02*
X89131125Y-158561819D01*
X89131125Y-158561819D02*
X89226363Y-158704676D01*
X89226363Y-158704676D02*
X89321601Y-158799914D01*
X89321601Y-158799914D02*
X89416839Y-158847533D01*
X88226363Y-158561819D02*
X88131125Y-158561819D01*
X88131125Y-158561819D02*
X88035887Y-158609438D01*
X88035887Y-158609438D02*
X87988268Y-158657057D01*
X87988268Y-158657057D02*
X87940649Y-158752295D01*
X87940649Y-158752295D02*
X87893030Y-158942771D01*
X87893030Y-158942771D02*
X87893030Y-159180866D01*
X87893030Y-159180866D02*
X87940649Y-159371342D01*
X87940649Y-159371342D02*
X87988268Y-159466580D01*
X87988268Y-159466580D02*
X88035887Y-159514200D01*
X88035887Y-159514200D02*
X88131125Y-159561819D01*
X88131125Y-159561819D02*
X88226363Y-159561819D01*
X88226363Y-159561819D02*
X88321601Y-159514200D01*
X88321601Y-159514200D02*
X88369220Y-159466580D01*
X88369220Y-159466580D02*
X88416839Y-159371342D01*
X88416839Y-159371342D02*
X88464458Y-159180866D01*
X88464458Y-159180866D02*
X88464458Y-158942771D01*
X88464458Y-158942771D02*
X88416839Y-158752295D01*
X88416839Y-158752295D02*
X88369220Y-158657057D01*
X88369220Y-158657057D02*
X88321601Y-158609438D01*
X88321601Y-158609438D02*
X88226363Y-158561819D01*
X98569220Y-159461819D02*
X98569220Y-158461819D01*
X98569220Y-158461819D02*
X98331125Y-158461819D01*
X98331125Y-158461819D02*
X98188268Y-158509438D01*
X98188268Y-158509438D02*
X98093030Y-158604676D01*
X98093030Y-158604676D02*
X98045411Y-158699914D01*
X98045411Y-158699914D02*
X97997792Y-158890390D01*
X97997792Y-158890390D02*
X97997792Y-159033247D01*
X97997792Y-159033247D02*
X98045411Y-159223723D01*
X98045411Y-159223723D02*
X98093030Y-159318961D01*
X98093030Y-159318961D02*
X98188268Y-159414200D01*
X98188268Y-159414200D02*
X98331125Y-159461819D01*
X98331125Y-159461819D02*
X98569220Y-159461819D01*
X97521601Y-159461819D02*
X97331125Y-159461819D01*
X97331125Y-159461819D02*
X97235887Y-159414200D01*
X97235887Y-159414200D02*
X97188268Y-159366580D01*
X97188268Y-159366580D02*
X97093030Y-159223723D01*
X97093030Y-159223723D02*
X97045411Y-159033247D01*
X97045411Y-159033247D02*
X97045411Y-158652295D01*
X97045411Y-158652295D02*
X97093030Y-158557057D01*
X97093030Y-158557057D02*
X97140649Y-158509438D01*
X97140649Y-158509438D02*
X97235887Y-158461819D01*
X97235887Y-158461819D02*
X97426363Y-158461819D01*
X97426363Y-158461819D02*
X97521601Y-158509438D01*
X97521601Y-158509438D02*
X97569220Y-158557057D01*
X97569220Y-158557057D02*
X97616839Y-158652295D01*
X97616839Y-158652295D02*
X97616839Y-158890390D01*
X97616839Y-158890390D02*
X97569220Y-158985628D01*
X97569220Y-158985628D02*
X97521601Y-159033247D01*
X97521601Y-159033247D02*
X97426363Y-159080866D01*
X97426363Y-159080866D02*
X97235887Y-159080866D01*
X97235887Y-159080866D02*
X97140649Y-159033247D01*
X97140649Y-159033247D02*
X97093030Y-158985628D01*
X97093030Y-158985628D02*
X97045411Y-158890390D01*
X107469220Y-159361819D02*
X107469220Y-158361819D01*
X107469220Y-158361819D02*
X107231125Y-158361819D01*
X107231125Y-158361819D02*
X107088268Y-158409438D01*
X107088268Y-158409438D02*
X106993030Y-158504676D01*
X106993030Y-158504676D02*
X106945411Y-158599914D01*
X106945411Y-158599914D02*
X106897792Y-158790390D01*
X106897792Y-158790390D02*
X106897792Y-158933247D01*
X106897792Y-158933247D02*
X106945411Y-159123723D01*
X106945411Y-159123723D02*
X106993030Y-159218961D01*
X106993030Y-159218961D02*
X107088268Y-159314200D01*
X107088268Y-159314200D02*
X107231125Y-159361819D01*
X107231125Y-159361819D02*
X107469220Y-159361819D01*
X106326363Y-158790390D02*
X106421601Y-158742771D01*
X106421601Y-158742771D02*
X106469220Y-158695152D01*
X106469220Y-158695152D02*
X106516839Y-158599914D01*
X106516839Y-158599914D02*
X106516839Y-158552295D01*
X106516839Y-158552295D02*
X106469220Y-158457057D01*
X106469220Y-158457057D02*
X106421601Y-158409438D01*
X106421601Y-158409438D02*
X106326363Y-158361819D01*
X106326363Y-158361819D02*
X106135887Y-158361819D01*
X106135887Y-158361819D02*
X106040649Y-158409438D01*
X106040649Y-158409438D02*
X105993030Y-158457057D01*
X105993030Y-158457057D02*
X105945411Y-158552295D01*
X105945411Y-158552295D02*
X105945411Y-158599914D01*
X105945411Y-158599914D02*
X105993030Y-158695152D01*
X105993030Y-158695152D02*
X106040649Y-158742771D01*
X106040649Y-158742771D02*
X106135887Y-158790390D01*
X106135887Y-158790390D02*
X106326363Y-158790390D01*
X106326363Y-158790390D02*
X106421601Y-158838009D01*
X106421601Y-158838009D02*
X106469220Y-158885628D01*
X106469220Y-158885628D02*
X106516839Y-158980866D01*
X106516839Y-158980866D02*
X106516839Y-159171342D01*
X106516839Y-159171342D02*
X106469220Y-159266580D01*
X106469220Y-159266580D02*
X106421601Y-159314200D01*
X106421601Y-159314200D02*
X106326363Y-159361819D01*
X106326363Y-159361819D02*
X106135887Y-159361819D01*
X106135887Y-159361819D02*
X106040649Y-159314200D01*
X106040649Y-159314200D02*
X105993030Y-159266580D01*
X105993030Y-159266580D02*
X105945411Y-159171342D01*
X105945411Y-159171342D02*
X105945411Y-158980866D01*
X105945411Y-158980866D02*
X105993030Y-158885628D01*
X105993030Y-158885628D02*
X106040649Y-158838009D01*
X106040649Y-158838009D02*
X106135887Y-158790390D01*
X148488268Y-163386295D02*
X148488268Y-163957723D01*
X148488268Y-163957723D02*
X148526363Y-164072009D01*
X148526363Y-164072009D02*
X148602554Y-164148200D01*
X148602554Y-164148200D02*
X148716839Y-164186295D01*
X148716839Y-164186295D02*
X148793030Y-164186295D01*
X147726363Y-164186295D02*
X148107315Y-164186295D01*
X148107315Y-164186295D02*
X148107315Y-163386295D01*
X147002553Y-164110104D02*
X147040649Y-164148200D01*
X147040649Y-164148200D02*
X147154934Y-164186295D01*
X147154934Y-164186295D02*
X147231125Y-164186295D01*
X147231125Y-164186295D02*
X147345411Y-164148200D01*
X147345411Y-164148200D02*
X147421601Y-164072009D01*
X147421601Y-164072009D02*
X147459696Y-163995819D01*
X147459696Y-163995819D02*
X147497792Y-163843438D01*
X147497792Y-163843438D02*
X147497792Y-163729152D01*
X147497792Y-163729152D02*
X147459696Y-163576771D01*
X147459696Y-163576771D02*
X147421601Y-163500580D01*
X147421601Y-163500580D02*
X147345411Y-163424390D01*
X147345411Y-163424390D02*
X147231125Y-163386295D01*
X147231125Y-163386295D02*
X147154934Y-163386295D01*
X147154934Y-163386295D02*
X147040649Y-163424390D01*
X147040649Y-163424390D02*
X147002553Y-163462485D01*
X146431125Y-163386295D02*
X146431125Y-163957723D01*
X146431125Y-163957723D02*
X146469220Y-164072009D01*
X146469220Y-164072009D02*
X146545411Y-164148200D01*
X146545411Y-164148200D02*
X146659696Y-164186295D01*
X146659696Y-164186295D02*
X146735887Y-164186295D01*
X145669220Y-164186295D02*
X146050172Y-164186295D01*
X146050172Y-164186295D02*
X146050172Y-163386295D01*
X144945410Y-164110104D02*
X144983506Y-164148200D01*
X144983506Y-164148200D02*
X145097791Y-164186295D01*
X145097791Y-164186295D02*
X145173982Y-164186295D01*
X145173982Y-164186295D02*
X145288268Y-164148200D01*
X145288268Y-164148200D02*
X145364458Y-164072009D01*
X145364458Y-164072009D02*
X145402553Y-163995819D01*
X145402553Y-163995819D02*
X145440649Y-163843438D01*
X145440649Y-163843438D02*
X145440649Y-163729152D01*
X145440649Y-163729152D02*
X145402553Y-163576771D01*
X145402553Y-163576771D02*
X145364458Y-163500580D01*
X145364458Y-163500580D02*
X145288268Y-163424390D01*
X145288268Y-163424390D02*
X145173982Y-163386295D01*
X145173982Y-163386295D02*
X145097791Y-163386295D01*
X145097791Y-163386295D02*
X144983506Y-163424390D01*
X144983506Y-163424390D02*
X144945410Y-163462485D01*
X144373982Y-163386295D02*
X144373982Y-163957723D01*
X144373982Y-163957723D02*
X144412077Y-164072009D01*
X144412077Y-164072009D02*
X144488268Y-164148200D01*
X144488268Y-164148200D02*
X144602553Y-164186295D01*
X144602553Y-164186295D02*
X144678744Y-164186295D01*
X143612077Y-164186295D02*
X143993029Y-164186295D01*
X143993029Y-164186295D02*
X143993029Y-163386295D01*
X142888267Y-164110104D02*
X142926363Y-164148200D01*
X142926363Y-164148200D02*
X143040648Y-164186295D01*
X143040648Y-164186295D02*
X143116839Y-164186295D01*
X143116839Y-164186295D02*
X143231125Y-164148200D01*
X143231125Y-164148200D02*
X143307315Y-164072009D01*
X143307315Y-164072009D02*
X143345410Y-163995819D01*
X143345410Y-163995819D02*
X143383506Y-163843438D01*
X143383506Y-163843438D02*
X143383506Y-163729152D01*
X143383506Y-163729152D02*
X143345410Y-163576771D01*
X143345410Y-163576771D02*
X143307315Y-163500580D01*
X143307315Y-163500580D02*
X143231125Y-163424390D01*
X143231125Y-163424390D02*
X143116839Y-163386295D01*
X143116839Y-163386295D02*
X143040648Y-163386295D01*
X143040648Y-163386295D02*
X142926363Y-163424390D01*
X142926363Y-163424390D02*
X142888267Y-163462485D01*
X142316839Y-163386295D02*
X142316839Y-163957723D01*
X142316839Y-163957723D02*
X142354934Y-164072009D01*
X142354934Y-164072009D02*
X142431125Y-164148200D01*
X142431125Y-164148200D02*
X142545410Y-164186295D01*
X142545410Y-164186295D02*
X142621601Y-164186295D01*
X141554934Y-164186295D02*
X141935886Y-164186295D01*
X141935886Y-164186295D02*
X141935886Y-163386295D01*
X140831124Y-164110104D02*
X140869220Y-164148200D01*
X140869220Y-164148200D02*
X140983505Y-164186295D01*
X140983505Y-164186295D02*
X141059696Y-164186295D01*
X141059696Y-164186295D02*
X141173982Y-164148200D01*
X141173982Y-164148200D02*
X141250172Y-164072009D01*
X141250172Y-164072009D02*
X141288267Y-163995819D01*
X141288267Y-163995819D02*
X141326363Y-163843438D01*
X141326363Y-163843438D02*
X141326363Y-163729152D01*
X141326363Y-163729152D02*
X141288267Y-163576771D01*
X141288267Y-163576771D02*
X141250172Y-163500580D01*
X141250172Y-163500580D02*
X141173982Y-163424390D01*
X141173982Y-163424390D02*
X141059696Y-163386295D01*
X141059696Y-163386295D02*
X140983505Y-163386295D01*
X140983505Y-163386295D02*
X140869220Y-163424390D01*
X140869220Y-163424390D02*
X140831124Y-163462485D01*
X77303152Y-151336779D02*
X78303152Y-151336779D01*
X77350771Y-151336779D02*
X77303152Y-151432017D01*
X77303152Y-151432017D02*
X77303152Y-151622493D01*
X77303152Y-151622493D02*
X77350771Y-151717731D01*
X77350771Y-151717731D02*
X77398390Y-151765350D01*
X77398390Y-151765350D02*
X77493628Y-151812969D01*
X77493628Y-151812969D02*
X77779342Y-151812969D01*
X77779342Y-151812969D02*
X77874580Y-151765350D01*
X77874580Y-151765350D02*
X77922200Y-151717731D01*
X77922200Y-151717731D02*
X77969819Y-151622493D01*
X77969819Y-151622493D02*
X77969819Y-151432017D01*
X77969819Y-151432017D02*
X77922200Y-151336779D01*
X77922200Y-152670112D02*
X77969819Y-152574874D01*
X77969819Y-152574874D02*
X77969819Y-152384398D01*
X77969819Y-152384398D02*
X77922200Y-152289160D01*
X77922200Y-152289160D02*
X77874580Y-152241541D01*
X77874580Y-152241541D02*
X77779342Y-152193922D01*
X77779342Y-152193922D02*
X77493628Y-152193922D01*
X77493628Y-152193922D02*
X77398390Y-152241541D01*
X77398390Y-152241541D02*
X77350771Y-152289160D01*
X77350771Y-152289160D02*
X77303152Y-152384398D01*
X77303152Y-152384398D02*
X77303152Y-152574874D01*
X77303152Y-152574874D02*
X77350771Y-152670112D01*
X77969819Y-153098684D02*
X76969819Y-153098684D01*
X77350771Y-153098684D02*
X77303152Y-153193922D01*
X77303152Y-153193922D02*
X77303152Y-153384398D01*
X77303152Y-153384398D02*
X77350771Y-153479636D01*
X77350771Y-153479636D02*
X77398390Y-153527255D01*
X77398390Y-153527255D02*
X77493628Y-153574874D01*
X77493628Y-153574874D02*
X77779342Y-153574874D01*
X77779342Y-153574874D02*
X77874580Y-153527255D01*
X77874580Y-153527255D02*
X77922200Y-153479636D01*
X77922200Y-153479636D02*
X77969819Y-153384398D01*
X77969819Y-153384398D02*
X77969819Y-153193922D01*
X77969819Y-153193922D02*
X77922200Y-153098684D01*
X77874580Y-154003446D02*
X77922200Y-154051065D01*
X77922200Y-154051065D02*
X77969819Y-154003446D01*
X77969819Y-154003446D02*
X77922200Y-153955827D01*
X77922200Y-153955827D02*
X77874580Y-154003446D01*
X77874580Y-154003446D02*
X77969819Y-154003446D01*
X77303152Y-154384398D02*
X77969819Y-154574874D01*
X77969819Y-154574874D02*
X77493628Y-154765350D01*
X77493628Y-154765350D02*
X77969819Y-154955826D01*
X77969819Y-154955826D02*
X77303152Y-155146302D01*
X77303152Y-155527255D02*
X78303152Y-155527255D01*
X77350771Y-155527255D02*
X77303152Y-155622493D01*
X77303152Y-155622493D02*
X77303152Y-155812969D01*
X77303152Y-155812969D02*
X77350771Y-155908207D01*
X77350771Y-155908207D02*
X77398390Y-155955826D01*
X77398390Y-155955826D02*
X77493628Y-156003445D01*
X77493628Y-156003445D02*
X77779342Y-156003445D01*
X77779342Y-156003445D02*
X77874580Y-155955826D01*
X77874580Y-155955826D02*
X77922200Y-155908207D01*
X77922200Y-155908207D02*
X77969819Y-155812969D01*
X77969819Y-155812969D02*
X77969819Y-155622493D01*
X77969819Y-155622493D02*
X77922200Y-155527255D01*
X77969819Y-156432017D02*
X77303152Y-156432017D01*
X76969819Y-156432017D02*
X77017438Y-156384398D01*
X77017438Y-156384398D02*
X77065057Y-156432017D01*
X77065057Y-156432017D02*
X77017438Y-156479636D01*
X77017438Y-156479636D02*
X76969819Y-156432017D01*
X76969819Y-156432017D02*
X77065057Y-156432017D01*
X77874580Y-156908207D02*
X77922200Y-156955826D01*
X77922200Y-156955826D02*
X77969819Y-156908207D01*
X77969819Y-156908207D02*
X77922200Y-156860588D01*
X77922200Y-156860588D02*
X77874580Y-156908207D01*
X77874580Y-156908207D02*
X77969819Y-156908207D01*
X77922200Y-157765349D02*
X77969819Y-157670111D01*
X77969819Y-157670111D02*
X77969819Y-157479635D01*
X77969819Y-157479635D02*
X77922200Y-157384397D01*
X77922200Y-157384397D02*
X77826961Y-157336778D01*
X77826961Y-157336778D02*
X77446009Y-157336778D01*
X77446009Y-157336778D02*
X77350771Y-157384397D01*
X77350771Y-157384397D02*
X77303152Y-157479635D01*
X77303152Y-157479635D02*
X77303152Y-157670111D01*
X77303152Y-157670111D02*
X77350771Y-157765349D01*
X77350771Y-157765349D02*
X77446009Y-157812968D01*
X77446009Y-157812968D02*
X77541247Y-157812968D01*
X77541247Y-157812968D02*
X77636485Y-157336778D01*
X77969819Y-158670111D02*
X76969819Y-158670111D01*
X77922200Y-158670111D02*
X77969819Y-158574873D01*
X77969819Y-158574873D02*
X77969819Y-158384397D01*
X77969819Y-158384397D02*
X77922200Y-158289159D01*
X77922200Y-158289159D02*
X77874580Y-158241540D01*
X77874580Y-158241540D02*
X77779342Y-158193921D01*
X77779342Y-158193921D02*
X77493628Y-158193921D01*
X77493628Y-158193921D02*
X77398390Y-158241540D01*
X77398390Y-158241540D02*
X77350771Y-158289159D01*
X77350771Y-158289159D02*
X77303152Y-158384397D01*
X77303152Y-158384397D02*
X77303152Y-158574873D01*
X77303152Y-158574873D02*
X77350771Y-158670111D01*
X77303152Y-159574873D02*
X77969819Y-159574873D01*
X77303152Y-159146302D02*
X77826961Y-159146302D01*
X77826961Y-159146302D02*
X77922200Y-159193921D01*
X77922200Y-159193921D02*
X77969819Y-159289159D01*
X77969819Y-159289159D02*
X77969819Y-159432016D01*
X77969819Y-159432016D02*
X77922200Y-159527254D01*
X77922200Y-159527254D02*
X77874580Y-159574873D01*
X77675819Y-132028779D02*
X76675819Y-132028779D01*
X76675819Y-132028779D02*
X77675819Y-132600207D01*
X77675819Y-132600207D02*
X76675819Y-132600207D01*
X77675819Y-133076398D02*
X76675819Y-133076398D01*
X77580580Y-134124016D02*
X77628200Y-134076397D01*
X77628200Y-134076397D02*
X77675819Y-133933540D01*
X77675819Y-133933540D02*
X77675819Y-133838302D01*
X77675819Y-133838302D02*
X77628200Y-133695445D01*
X77628200Y-133695445D02*
X77532961Y-133600207D01*
X77532961Y-133600207D02*
X77437723Y-133552588D01*
X77437723Y-133552588D02*
X77247247Y-133504969D01*
X77247247Y-133504969D02*
X77104390Y-133504969D01*
X77104390Y-133504969D02*
X76913914Y-133552588D01*
X76913914Y-133552588D02*
X76818676Y-133600207D01*
X76818676Y-133600207D02*
X76723438Y-133695445D01*
X76723438Y-133695445D02*
X76675819Y-133838302D01*
X76675819Y-133838302D02*
X76675819Y-133933540D01*
X76675819Y-133933540D02*
X76723438Y-134076397D01*
X76723438Y-134076397D02*
X76771057Y-134124016D01*
X76675819Y-134743064D02*
X76675819Y-134933540D01*
X76675819Y-134933540D02*
X76723438Y-135028778D01*
X76723438Y-135028778D02*
X76818676Y-135124016D01*
X76818676Y-135124016D02*
X77009152Y-135171635D01*
X77009152Y-135171635D02*
X77342485Y-135171635D01*
X77342485Y-135171635D02*
X77532961Y-135124016D01*
X77532961Y-135124016D02*
X77628200Y-135028778D01*
X77628200Y-135028778D02*
X77675819Y-134933540D01*
X77675819Y-134933540D02*
X77675819Y-134743064D01*
X77675819Y-134743064D02*
X77628200Y-134647826D01*
X77628200Y-134647826D02*
X77532961Y-134552588D01*
X77532961Y-134552588D02*
X77342485Y-134504969D01*
X77342485Y-134504969D02*
X77009152Y-134504969D01*
X77009152Y-134504969D02*
X76818676Y-134552588D01*
X76818676Y-134552588D02*
X76723438Y-134647826D01*
X76723438Y-134647826D02*
X76675819Y-134743064D01*
X77675819Y-136076397D02*
X77675819Y-135600207D01*
X77675819Y-135600207D02*
X76675819Y-135600207D01*
X77390104Y-136362112D02*
X77390104Y-136838302D01*
X77675819Y-136266874D02*
X76675819Y-136600207D01*
X76675819Y-136600207D02*
X77675819Y-136933540D01*
X77628200Y-137219255D02*
X77675819Y-137362112D01*
X77675819Y-137362112D02*
X77675819Y-137600207D01*
X77675819Y-137600207D02*
X77628200Y-137695445D01*
X77628200Y-137695445D02*
X77580580Y-137743064D01*
X77580580Y-137743064D02*
X77485342Y-137790683D01*
X77485342Y-137790683D02*
X77390104Y-137790683D01*
X77390104Y-137790683D02*
X77294866Y-137743064D01*
X77294866Y-137743064D02*
X77247247Y-137695445D01*
X77247247Y-137695445D02*
X77199628Y-137600207D01*
X77199628Y-137600207D02*
X77152009Y-137409731D01*
X77152009Y-137409731D02*
X77104390Y-137314493D01*
X77104390Y-137314493D02*
X77056771Y-137266874D01*
X77056771Y-137266874D02*
X76961533Y-137219255D01*
X76961533Y-137219255D02*
X76866295Y-137219255D01*
X76866295Y-137219255D02*
X76771057Y-137266874D01*
X76771057Y-137266874D02*
X76723438Y-137314493D01*
X76723438Y-137314493D02*
X76675819Y-137409731D01*
X76675819Y-137409731D02*
X76675819Y-137647826D01*
X76675819Y-137647826D02*
X76723438Y-137790683D01*
X76723438Y-139504969D02*
X76675819Y-139409731D01*
X76675819Y-139409731D02*
X76675819Y-139266874D01*
X76675819Y-139266874D02*
X76723438Y-139124017D01*
X76723438Y-139124017D02*
X76818676Y-139028779D01*
X76818676Y-139028779D02*
X76913914Y-138981160D01*
X76913914Y-138981160D02*
X77104390Y-138933541D01*
X77104390Y-138933541D02*
X77247247Y-138933541D01*
X77247247Y-138933541D02*
X77437723Y-138981160D01*
X77437723Y-138981160D02*
X77532961Y-139028779D01*
X77532961Y-139028779D02*
X77628200Y-139124017D01*
X77628200Y-139124017D02*
X77675819Y-139266874D01*
X77675819Y-139266874D02*
X77675819Y-139362112D01*
X77675819Y-139362112D02*
X77628200Y-139504969D01*
X77628200Y-139504969D02*
X77580580Y-139552588D01*
X77580580Y-139552588D02*
X77247247Y-139552588D01*
X77247247Y-139552588D02*
X77247247Y-139362112D01*
X77675819Y-140552588D02*
X77199628Y-140219255D01*
X77675819Y-139981160D02*
X76675819Y-139981160D01*
X76675819Y-139981160D02*
X76675819Y-140362112D01*
X76675819Y-140362112D02*
X76723438Y-140457350D01*
X76723438Y-140457350D02*
X76771057Y-140504969D01*
X76771057Y-140504969D02*
X76866295Y-140552588D01*
X76866295Y-140552588D02*
X77009152Y-140552588D01*
X77009152Y-140552588D02*
X77104390Y-140504969D01*
X77104390Y-140504969D02*
X77152009Y-140457350D01*
X77152009Y-140457350D02*
X77199628Y-140362112D01*
X77199628Y-140362112D02*
X77199628Y-139981160D01*
X77390104Y-140933541D02*
X77390104Y-141409731D01*
X77675819Y-140838303D02*
X76675819Y-141171636D01*
X76675819Y-141171636D02*
X77675819Y-141504969D01*
X77675819Y-141838303D02*
X76675819Y-141838303D01*
X77152009Y-141838303D02*
X77152009Y-142409731D01*
X77675819Y-142409731D02*
X76675819Y-142409731D01*
X77390104Y-142838303D02*
X77390104Y-143314493D01*
X77675819Y-142743065D02*
X76675819Y-143076398D01*
X76675819Y-143076398D02*
X77675819Y-143409731D01*
X77675819Y-143743065D02*
X76675819Y-143743065D01*
X76675819Y-143743065D02*
X77390104Y-144076398D01*
X77390104Y-144076398D02*
X76675819Y-144409731D01*
X76675819Y-144409731D02*
X77675819Y-144409731D01*
X93714332Y-158749200D02*
X93571475Y-158796819D01*
X93571475Y-158796819D02*
X93333380Y-158796819D01*
X93333380Y-158796819D02*
X93238142Y-158749200D01*
X93238142Y-158749200D02*
X93190523Y-158701580D01*
X93190523Y-158701580D02*
X93142904Y-158606342D01*
X93142904Y-158606342D02*
X93142904Y-158511104D01*
X93142904Y-158511104D02*
X93190523Y-158415866D01*
X93190523Y-158415866D02*
X93238142Y-158368247D01*
X93238142Y-158368247D02*
X93333380Y-158320628D01*
X93333380Y-158320628D02*
X93523856Y-158273009D01*
X93523856Y-158273009D02*
X93619094Y-158225390D01*
X93619094Y-158225390D02*
X93666713Y-158177771D01*
X93666713Y-158177771D02*
X93714332Y-158082533D01*
X93714332Y-158082533D02*
X93714332Y-157987295D01*
X93714332Y-157987295D02*
X93666713Y-157892057D01*
X93666713Y-157892057D02*
X93619094Y-157844438D01*
X93619094Y-157844438D02*
X93523856Y-157796819D01*
X93523856Y-157796819D02*
X93285761Y-157796819D01*
X93285761Y-157796819D02*
X93142904Y-157844438D01*
X92809570Y-157796819D02*
X92571475Y-158796819D01*
X92571475Y-158796819D02*
X92380999Y-158082533D01*
X92380999Y-158082533D02*
X92190523Y-158796819D01*
X92190523Y-158796819D02*
X91952428Y-157796819D01*
X91047666Y-158796819D02*
X91619094Y-158796819D01*
X91333380Y-158796819D02*
X91333380Y-157796819D01*
X91333380Y-157796819D02*
X91428618Y-157939676D01*
X91428618Y-157939676D02*
X91523856Y-158034914D01*
X91523856Y-158034914D02*
X91619094Y-158082533D01*
X102339332Y-158649200D02*
X102196475Y-158696819D01*
X102196475Y-158696819D02*
X101958380Y-158696819D01*
X101958380Y-158696819D02*
X101863142Y-158649200D01*
X101863142Y-158649200D02*
X101815523Y-158601580D01*
X101815523Y-158601580D02*
X101767904Y-158506342D01*
X101767904Y-158506342D02*
X101767904Y-158411104D01*
X101767904Y-158411104D02*
X101815523Y-158315866D01*
X101815523Y-158315866D02*
X101863142Y-158268247D01*
X101863142Y-158268247D02*
X101958380Y-158220628D01*
X101958380Y-158220628D02*
X102148856Y-158173009D01*
X102148856Y-158173009D02*
X102244094Y-158125390D01*
X102244094Y-158125390D02*
X102291713Y-158077771D01*
X102291713Y-158077771D02*
X102339332Y-157982533D01*
X102339332Y-157982533D02*
X102339332Y-157887295D01*
X102339332Y-157887295D02*
X102291713Y-157792057D01*
X102291713Y-157792057D02*
X102244094Y-157744438D01*
X102244094Y-157744438D02*
X102148856Y-157696819D01*
X102148856Y-157696819D02*
X101910761Y-157696819D01*
X101910761Y-157696819D02*
X101767904Y-157744438D01*
X101434570Y-157696819D02*
X101196475Y-158696819D01*
X101196475Y-158696819D02*
X101005999Y-157982533D01*
X101005999Y-157982533D02*
X100815523Y-158696819D01*
X100815523Y-158696819D02*
X100577428Y-157696819D01*
X100244094Y-157792057D02*
X100196475Y-157744438D01*
X100196475Y-157744438D02*
X100101237Y-157696819D01*
X100101237Y-157696819D02*
X99863142Y-157696819D01*
X99863142Y-157696819D02*
X99767904Y-157744438D01*
X99767904Y-157744438D02*
X99720285Y-157792057D01*
X99720285Y-157792057D02*
X99672666Y-157887295D01*
X99672666Y-157887295D02*
X99672666Y-157982533D01*
X99672666Y-157982533D02*
X99720285Y-158125390D01*
X99720285Y-158125390D02*
X100291713Y-158696819D01*
X100291713Y-158696819D02*
X99672666Y-158696819D01*
X110964332Y-158749200D02*
X110821475Y-158796819D01*
X110821475Y-158796819D02*
X110583380Y-158796819D01*
X110583380Y-158796819D02*
X110488142Y-158749200D01*
X110488142Y-158749200D02*
X110440523Y-158701580D01*
X110440523Y-158701580D02*
X110392904Y-158606342D01*
X110392904Y-158606342D02*
X110392904Y-158511104D01*
X110392904Y-158511104D02*
X110440523Y-158415866D01*
X110440523Y-158415866D02*
X110488142Y-158368247D01*
X110488142Y-158368247D02*
X110583380Y-158320628D01*
X110583380Y-158320628D02*
X110773856Y-158273009D01*
X110773856Y-158273009D02*
X110869094Y-158225390D01*
X110869094Y-158225390D02*
X110916713Y-158177771D01*
X110916713Y-158177771D02*
X110964332Y-158082533D01*
X110964332Y-158082533D02*
X110964332Y-157987295D01*
X110964332Y-157987295D02*
X110916713Y-157892057D01*
X110916713Y-157892057D02*
X110869094Y-157844438D01*
X110869094Y-157844438D02*
X110773856Y-157796819D01*
X110773856Y-157796819D02*
X110535761Y-157796819D01*
X110535761Y-157796819D02*
X110392904Y-157844438D01*
X110059570Y-157796819D02*
X109821475Y-158796819D01*
X109821475Y-158796819D02*
X109630999Y-158082533D01*
X109630999Y-158082533D02*
X109440523Y-158796819D01*
X109440523Y-158796819D02*
X109202428Y-157796819D01*
X108916713Y-157796819D02*
X108297666Y-157796819D01*
X108297666Y-157796819D02*
X108630999Y-158177771D01*
X108630999Y-158177771D02*
X108488142Y-158177771D01*
X108488142Y-158177771D02*
X108392904Y-158225390D01*
X108392904Y-158225390D02*
X108345285Y-158273009D01*
X108345285Y-158273009D02*
X108297666Y-158368247D01*
X108297666Y-158368247D02*
X108297666Y-158606342D01*
X108297666Y-158606342D02*
X108345285Y-158701580D01*
X108345285Y-158701580D02*
X108392904Y-158749200D01*
X108392904Y-158749200D02*
X108488142Y-158796819D01*
X108488142Y-158796819D02*
X108773856Y-158796819D01*
X108773856Y-158796819D02*
X108869094Y-158749200D01*
X108869094Y-158749200D02*
X108916713Y-158701580D01*
D11*
X89931000Y-159942000D02*
X89931000Y-159992000D01*
X89931000Y-161642000D02*
X89931000Y-163142000D01*
X89931000Y-164842000D02*
X89931000Y-164792000D01*
X94831000Y-159942000D02*
X89931000Y-159942000D01*
X94831000Y-159942000D02*
X94831000Y-159992000D01*
X94831000Y-161642000D02*
X94831000Y-163142000D01*
X94831000Y-164842000D02*
X89931000Y-164842000D01*
X94831000Y-164842000D02*
X94831000Y-164792000D01*
X98556000Y-159842000D02*
X98556000Y-159892000D01*
X98556000Y-161542000D02*
X98556000Y-163042000D01*
X98556000Y-164742000D02*
X98556000Y-164692000D01*
X103456000Y-159842000D02*
X98556000Y-159842000D01*
X103456000Y-159842000D02*
X103456000Y-159892000D01*
X103456000Y-161542000D02*
X103456000Y-163042000D01*
X103456000Y-164742000D02*
X98556000Y-164742000D01*
X103456000Y-164742000D02*
X103456000Y-164692000D01*
X107181000Y-159942000D02*
X107181000Y-159992000D01*
X107181000Y-161642000D02*
X107181000Y-163142000D01*
X107181000Y-164842000D02*
X107181000Y-164792000D01*
X112081000Y-159942000D02*
X107181000Y-159942000D01*
X112081000Y-159942000D02*
X112081000Y-159992000D01*
X112081000Y-161642000D02*
X112081000Y-163142000D01*
X112081000Y-164842000D02*
X107181000Y-164842000D01*
X112081000Y-164842000D02*
X112081000Y-164792000D01*
%LPC*%
D12*
X81606000Y-127992000D03*
X96006000Y-156692000D03*
X113706000Y-130092000D03*
X132306000Y-160992000D03*
D13*
X59817000Y-153924000D03*
D14*
X59817000Y-156464000D03*
X57277000Y-153924000D03*
X57277000Y-156464000D03*
X54737000Y-153924000D03*
X54737000Y-156464000D03*
D13*
X50130000Y-128000000D03*
D14*
X52670000Y-128000000D03*
X55210000Y-128000000D03*
X57750000Y-128000000D03*
X60290000Y-128000000D03*
X62830000Y-128000000D03*
X65370000Y-128000000D03*
X67910000Y-128000000D03*
X70450000Y-128000000D03*
X72990000Y-128000000D03*
D13*
X50130000Y-162500000D03*
D14*
X52670000Y-162500000D03*
X55210000Y-162500000D03*
X57750000Y-162500000D03*
X60290000Y-162500000D03*
X62830000Y-162500000D03*
X65370000Y-162500000D03*
X67910000Y-162500000D03*
X70450000Y-162500000D03*
X72990000Y-162500000D03*
D15*
X49459000Y-137032000D03*
X49459000Y-144182000D03*
D16*
X95006000Y-160792000D03*
X89756000Y-160792000D03*
X95006000Y-163992000D03*
X89756000Y-163992000D03*
X103631000Y-160692000D03*
X98381000Y-160692000D03*
X103631000Y-163892000D03*
X98381000Y-163892000D03*
X112256000Y-160792000D03*
X107006000Y-160792000D03*
X112256000Y-163992000D03*
X107006000Y-163992000D03*
D12*
X134006000Y-129292000D03*
%LPD*%
M02*
