M48
; DRILL file {KiCad 9.0.8} date 2026-03-20T16:44:04-0400
; FORMAT={-:-/ absolute / metric / decimal}
; #@! TF.CreationDate,2026-03-20T16:44:04-04:00
; #@! TF.GenerationSoftware,Kicad,Pcbnew,9.0.8
; #@! TF.FileFunction,Plated,1,2,PTH
FMAT,2
METRIC
; #@! TA.AperFunction,Plated,PTH,ViaDrill
T1C0.400
; #@! TA.AperFunction,Plated,PTH,ComponentDrill
T2C0.450
; #@! TA.AperFunction,Plated,PTH,ComponentDrill
T3C1.000
%
G90
G05
T1
X51.506Y-149.292
X54.006Y-149.292
X56.806Y-129.692
X57.006Y-131.792
X57.706Y-146.517
X58.006Y-159.792
X59.906Y-138.892
X60.006Y-144.292
X60.106Y-148.492
X60.506Y-159.792
X61.906Y-148.992
X63.235Y-150.092
X63.51Y-143.04
X64.035Y-137.74
X64.506Y-146.292
X65.606Y-146.392
X68.685Y-149.842
X69.106Y-145.992
X69.606Y-149.392
X70.883Y-149.715
X71.906Y-134.692
X72.006Y-149.692
X72.046Y-144.951
X81.506Y-137.692
X81.606Y-150.392
X86.906Y-131.292
X87.106Y-144.192
X91.106Y-155.392
X92.506Y-150.492
X92.606Y-137.692
X92.606Y-160.592
X98.506Y-137.492
X98.706Y-150.592
X101.006Y-160.792
X104.006Y-144.092
X104.106Y-131.292
X104.106Y-156.592
X106.606Y-136.092
X107.706Y-145.092
X109.606Y-150.292
X109.906Y-161.292
X114.506Y-148.592
X114.606Y-139.392
X114.606Y-156.492
X115.506Y-137.692
X119.606Y-150.392
X119.706Y-137.692
X125.006Y-131.492
X125.006Y-144.392
X125.106Y-156.792
X130.706Y-137.792
X130.706Y-150.692
X136.606Y-150.792
X136.706Y-137.992
X141.706Y-144.292
X142.006Y-131.592
X142.306Y-156.792
X147.606Y-137.792
X147.706Y-150.292
T3
X50.13Y-128.0
X50.13Y-162.5
X52.67Y-128.0
X52.67Y-162.5
X54.737Y-153.924
X54.737Y-156.464
X55.21Y-128.0
X55.21Y-162.5
X57.277Y-153.924
X57.277Y-156.464
X57.75Y-128.0
X57.75Y-162.5
X59.817Y-153.924
X59.817Y-156.464
X60.29Y-128.0
X60.29Y-162.5
X62.83Y-128.0
X62.83Y-162.5
X65.37Y-128.0
X65.37Y-162.5
X67.91Y-128.0
X67.91Y-162.5
X70.45Y-128.0
X70.45Y-162.5
X72.99Y-128.0
X72.99Y-162.5
T2
X49.059Y-137.032G85X49.859Y-137.032
G05
X49.859Y-144.182G85X49.059Y-144.182
G05
M30
